<svg xmlns="http://www.w3.org/2000/svg" width="22.252" height="14.835" viewBox="0 0 22.252 14.835"><defs><style>.a{fill:#fff;}.b{fill:#d98d9b;}.c{fill:#8998bf;}</style></defs><g transform="translate(0.002 -85.33)"><rect class="a" width="22.25" height="14.833" transform="translate(0 85.331)"/><rect class="b" width="11.25" height="1.854" transform="translate(11 87.185)"/><rect class="b" width="11.25" height="1.854" transform="translate(11 90.893)"/><rect class="b" width="22.25" height="1.854" transform="translate(0 94.601)"/><rect class="b" width="22.25" height="1.854" transform="translate(0 98.31)"/><path class="c" d="M22610.6-6188.681h-11.127v-7.99h11.127v7.989Zm-1.889-1.623h0l.465.34-.176-.551.471-.34h-.584l-.176-.556-.182.556h-.58l.473.34-.182.551.471-.34Zm-2.451,0h0l.471.34-.182-.551.471-.34h-.578l-.182-.556-.176.556h-.58l.467.34-.178.551.467-.34Zm-2.451,0h0l.471.34-.176-.551.465-.34h-.578l-.182-.556-.176.556h-.58l.471.34-.182.551.467-.34Zm-2.447,0h0l.473.34-.182-.551.471-.34h-.58l-.182-.556-.176.556h-.578l.465.34-.176.551.465-.34Zm7.35-1.992h0l.465.34-.176-.551.471-.34h-.584l-.176-.55-.182.55h-.58l.473.34-.182.551.471-.34Zm-2.451,0h0l.471.34-.182-.551.471-.34h-.578l-.182-.55-.176.55h-.58l.467.34-.178.551.467-.34Zm-2.451,0h0l.471.34-.176-.551.465-.34h-.578l-.182-.55-.176.55h-.58l.471.34-.182.551.467-.34Zm-2.447,0h0l.473.34-.182-.551.471-.34h-.58l-.182-.55-.176.55h-.578l.465.34-.176.551.465-.34Zm7.35-1.986h0l.465.34-.176-.556.471-.34h-.584l-.176-.55-.182.55h-.58l.473.34-.182.556.471-.34Zm-2.451,0h0l.471.34-.182-.556.471-.34h-.578l-.182-.55-.176.55h-.58l.467.34-.178.556.467-.34Zm-2.451,0h0l.471.34-.176-.556.465-.34h-.578l-.182-.55-.176.55h-.58l.471.34-.182.556.467-.34Zm-2.447,0h0l.473.34-.182-.556.471-.34h-.58l-.182-.55-.176.55h-.578l.465.34-.176.556.465-.34Z" transform="translate(-22599.471 6282)"/></g></svg>